<svg xmlns="http://www.w3.org/2000/svg" fill="none" width="200" height="200" viewBox="205.14 193.22 614.01 637.78" preserveAspectRatio="xMidYMid slice">
<g>
<path d="M 213.18 814.25 C217.60,805.04 229.56,779.72 239.76,758.00 C260.99,712.75 269.12,695.49 292.47,646.00 C321.78,583.90 408.86,396.31 444.97,317.50 C449.50,307.60 457.87,289.38 463.55,277.00 C469.24,264.62 480.14,240.77 487.77,224.00 L 501.66 193.50 L 512.87 193.22 L 524.07 192.93 L 525.65 196.72 C528.44,203.43 555.39,262.89 572.12,299.27 C575.36,306.30 578.00,312.21 578.00,312.42 C578.00,312.63 581.54,320.38 585.87,329.65 C597.98,355.60 605.07,370.92 613.80,390.00 C618.19,399.62 626.63,418.07 632.54,430.99 C649.79,468.68 652.70,479.58 651.73,502.85 C650.44,533.68 636.48,561.72 611.78,583.07 C598.32,594.71 582.99,602.68 564.31,607.75 L 554.50 610.41 L 478.50 611.04 C405.09,611.65 402.19,611.74 393.50,613.84 C380.19,617.05 372.60,619.73 361.94,624.97 C348.22,631.71 340.80,637.03 329.91,647.91 C314.89,662.93 311.82,668.07 289.23,716.00 C282.62,730.03 274.76,746.67 271.75,753.00 C257.16,783.72 240.92,818.19 238.18,824.25 L 235.13 831.00 L 220.14 831.00 L 205.14 831.00 L 213.18 814.25 ZM 354.60 598.68 C361.15,595.75 369.15,592.49 372.38,591.43 L 378.27 589.50 L 384.72 576.00 C388.27,568.58 399.05,545.40 408.68,524.50 C418.31,503.60 428.80,480.88 431.99,474.00 C435.18,467.12 442.85,450.48 449.02,437.00 C455.19,423.52 461.99,408.71 464.13,404.08 C466.62,398.71 467.81,394.91 467.42,393.58 C465.90,388.38 454.59,363.97 453.82,364.23 C453.08,364.47 447.33,376.24 437.54,397.50 C436.28,400.25 431.19,411.27 426.23,422.00 C421.28,432.73 414.76,446.90 411.74,453.50 C408.73,460.10 394.08,491.65 379.19,523.60 C364.31,555.56 350.03,586.38 347.46,592.10 C344.89,597.82 342.59,602.84 342.34,603.25 C341.61,604.46 342.12,604.26 354.60,598.68 ZM 440.75 582.75 C441.56,581.74 457.49,547.50 473.21,513.00 C474.84,509.42 480.86,496.33 486.58,483.91 C492.31,471.48 497.00,460.51 497.00,459.52 C497.00,457.63 483.86,428.09 483.00,428.05 C482.73,428.03 479.66,434.34 476.20,442.05 C470.64,454.42 453.48,491.57 420.88,561.79 C415.45,573.51 411.00,583.29 411.00,583.54 C411.00,583.79 417.47,584.00 425.38,584.00 C435.68,584.00 440.04,583.65 440.75,582.75 ZM 552.66 582.75 C553.46,582.23 551.13,576.13 545.01,562.75 C520.08,508.24 513.27,493.84 512.43,493.81 C511.93,493.79 508.53,500.24 504.89,508.14 C478.05,566.32 471.00,581.88 471.00,582.91 C471.00,583.80 480.94,584.01 511.25,583.79 C533.39,583.63 552.02,583.16 552.66,582.75 ZM 587.58 567.88 C605.72,555.34 619.27,535.28 623.43,514.79 C625.63,504.00 625.48,487.19 623.10,477.91 C622.06,473.83 618.51,464.65 615.21,457.50 C609.09,444.23 599.65,423.60 585.00,391.50 C580.48,381.60 573.28,365.85 569.00,356.50 C564.72,347.15 559.08,334.77 556.47,329.00 C553.86,323.23 548.35,311.08 544.23,302.00 C540.11,292.92 533.26,277.85 529.02,268.50 C515.32,238.34 513.72,235.00 513.01,235.00 C512.63,235.00 509.09,241.80 505.14,250.11 L 497.97 265.23 L 503.63 277.86 C506.74,284.81 513.00,298.60 517.54,308.50 C522.07,318.40 531.06,338.20 537.50,352.50 C543.94,366.80 551.83,384.12 555.02,391.00 C558.22,397.88 562.62,407.55 564.80,412.50 C566.99,417.45 572.93,430.50 578.00,441.50 C597.91,484.62 599.00,487.58 599.00,498.48 C599.00,501.81 598.09,507.83 596.97,511.86 C594.88,519.40 590.54,529.00 589.22,529.00 C588.53,529.00 581.18,513.10 539.50,421.50 C531.49,403.90 522.63,384.55 519.81,378.50 C516.99,372.45 513.01,363.67 510.96,359.00 C503.39,341.71 488.23,308.34 485.74,303.50 L 483.18 298.50 L 481.19 303.00 C480.10,305.48 476.91,312.38 474.11,318.35 C471.30,324.32 469.00,329.59 469.00,330.06 C469.00,330.86 475.91,346.42 502.51,405.50 C513.12,429.06 529.65,465.28 549.51,508.50 C554.31,518.95 560.38,532.22 563.00,538.00 C565.61,543.78 569.88,553.00 572.47,558.50 C575.06,564.00 577.58,569.51 578.07,570.75 C578.55,571.99 579.23,573.00 579.56,573.00 C579.90,573.00 583.50,570.70 587.58,567.88 ZM 267.93 824.75 C271.78,816.30 277.43,804.29 285.48,787.50 C292.41,773.02 295.12,767.28 319.22,716.00 C327.10,699.22 335.34,682.81 337.52,679.52 C350.85,659.48 370.63,646.40 399.00,638.87 C402.18,638.03 425.68,637.47 479.00,636.98 C561.51,636.22 560.75,636.27 580.08,629.99 C625.20,615.31 659.61,580.12 673.56,534.38 C675.01,529.65 676.52,526.17 676.93,526.64 C677.33,527.11 680.73,534.25 684.47,542.50 C688.22,550.75 698.14,572.12 706.53,590.00 C727.99,635.77 765.09,714.84 779.25,745.00 C785.83,759.03 796.11,780.95 802.08,793.73 C808.06,806.50 814.02,819.10 815.34,821.73 C816.66,824.35 818.06,827.52 818.45,828.78 L 819.15 831.05 L 804.41 830.78 L 789.68 830.50 L 777.30 804.00 C770.49,789.42 761.83,770.97 758.06,763.00 C747.34,740.33 723.23,688.85 699.52,638.00 C687.59,612.42 677.51,591.16 677.12,590.75 C676.73,590.34 674.63,592.35 672.45,595.22 C670.28,598.08 666.07,603.31 663.10,606.82 L 657.69 613.22 L 660.49 618.86 C662.03,621.96 667.44,633.50 672.52,644.50 C677.61,655.50 685.91,673.28 690.98,684.00 C696.05,694.72 706.62,717.22 714.47,734.00 C722.33,750.78 734.27,776.20 741.01,790.50 C747.75,804.80 754.77,819.77 756.62,823.78 L 759.97 831.05 L 744.98 830.78 L 729.98 830.50 L 711.90 792.00 C683.55,731.64 666.87,695.95 651.85,663.53 C644.21,647.05 637.57,633.17 637.08,632.68 C636.57,632.17 632.66,634.13 627.81,637.33 C623.19,640.37 618.19,643.41 616.71,644.09 C615.22,644.77 614.00,645.65 614.00,646.05 C614.00,646.45 617.78,654.82 622.40,664.64 C627.02,674.46 635.30,692.17 640.79,704.00 C654.52,733.53 677.75,783.15 689.90,808.91 C695.46,820.69 700.00,830.48 700.00,830.66 C700.00,830.85 693.28,831.00 685.07,831.00 C670.74,831.00 670.11,830.91 669.46,828.88 C669.09,827.72 662.26,812.98 654.28,796.13 C639.54,765.00 624.68,733.09 602.32,684.50 C595.48,669.65 589.57,657.18 589.17,656.78 C588.78,656.38 586.22,656.73 583.48,657.56 C580.74,658.38 574.22,660.01 569.00,661.17 C559.95,663.19 555.90,663.32 483.00,663.96 C407.47,664.61 406.41,664.65 399.03,666.88 C386.54,670.64 376.47,676.53 367.96,685.04 C359.14,693.86 357.81,696.27 335.49,744.00 C327.39,761.33 316.50,784.50 311.29,795.50 C306.08,806.50 300.22,818.99 298.27,823.25 L 294.71 831.00 L 279.90 831.00 L 265.08 831.00 L 267.93 824.75 ZM 325.00 830.66 C325.00,830.45 332.02,815.25 340.61,796.89 C349.19,778.52 360.67,753.92 366.12,742.21 C380.41,711.46 382.79,706.94 386.85,702.66 C393.02,696.17 405.81,691.00 415.67,691.00 L 419.92 691.00 L 413.36 704.75 C409.76,712.31 403.06,726.60 398.47,736.50 C393.88,746.40 382.05,771.60 372.17,792.50 L 354.22 830.50 L 339.61 830.78 C331.58,830.93 325.00,830.88 325.00,830.66 Z" fill="#000"/>
</g>
</svg>
